<svg xmlns="http://www.w3.org/2000/svg" viewBox="0 0 735 256.1"><path d="M166.507 50.493h-18.553c-11.037-20.198-31.937-34.054-60.356-34.054-40.628 0-68.81 30.061-68.81 69.045 0 38.985 28.182 69.044 68.81 69.044 28.419 0 49.319-13.855 60.356-34.052h18.553c-11.977 29.59-41.097 50.493-78.909 50.493C36.872 170.969 0 133.862 0 85.484S36.872 0 87.598 0c37.812 0 66.932 20.902 78.909 50.493M382.953 99.34c27.242 0 42.037-19.492 42.037-40.159 0-20.666-14.795-39.688-42.037-39.688h-41.804V99.34h41.804Zm-6.106 16.205h-35.698v52.135h-18.786V3.288h62.467c35.228 0 58.714 25.833 58.714 55.893 0 26.069-17.614 49.084-44.856 54.955l50.021 53.544H424.99l-48.143-52.135ZM576.311 19.493h-44.458v148.188h-18.788V19.493h-53.782V3.288h125.348l-8.32 16.205ZM621.569 116.484h73.272l-36.637-91.59-36.635 91.59Zm79.613 15.735h-85.955l-14.325 35.461h-19.493L650.455 3.287h15.5L735 167.68h-19.491l-14.327-35.461Z" style="fill:#17002d;fill-opacity:1"/><path d="M124.455 234.642c0-4.198-3.438-7.077-7.756-7.077h-12.034v27.986h12.674c5.637 0 9.395-3.398 9.395-7.756 0-3.798-2.399-6.277-6.317-6.997 2.359-1.079 4.038-3.358 4.038-6.156Zm-14.632 16.751v-8.156h6.796c2.919 0 4.918 1.639 4.918 4.038s-1.879 4.118-4.958 4.118h-6.756Zm0-19.67h5.277c2.559 0 4.278 1.479 4.278 3.598 0 2.159-1.559 3.838-4.038 3.838h-5.517v-7.436Zm43.697 9.835c0 8.156 5.997 14.552 14.872 14.552 8.916 0 14.872-6.436 14.872-14.552s-5.956-14.552-14.872-14.552c-8.875 0-14.872 6.436-14.872 14.552Zm14.872-10.075c6.077 0 9.675 4.678 9.675 10.075 0 5.357-3.598 10.075-9.675 10.075-6.037 0-9.675-4.718-9.675-10.075 0-5.397 3.638-10.075 9.675-10.075Zm41.978 10.075c0 8.156 5.997 14.552 14.873 14.552 8.915 0 14.872-6.436 14.872-14.552s-5.957-14.552-14.872-14.552c-8.876 0-14.873 6.436-14.873 14.552Zm14.873-10.075c6.076 0 9.675 4.678 9.675 10.075 0 5.357-3.599 10.075-9.675 10.075-6.037 0-9.675-4.718-9.675-10.075 0-5.397 3.638-10.075 9.675-10.075Zm43.377 24.068h5.197v-13.953l11.554 13.953h6.197l-12.034-14.313 11.474-13.673h-5.997l-11.194 13.313v-13.313h-5.197v27.986Zm50.734 0h5.197v-13.953l11.554 13.953h6.197l-12.034-14.313 11.474-13.673h-5.997l-11.194 13.313v-13.313h-5.197v27.986Zm50.733 0h18.87v-4.558h-13.673v-7.396h13.154v-4.518h-13.154v-6.956h13.513v-4.558h-18.71v27.986Zm47.415 0h18.871v-4.558H422.7v-7.396h13.153v-4.518H422.7v-6.956h13.513v-4.558h-18.711v27.986Zm59.249-7.876c5.957 0 10.155-4.558 10.155-10.075 0-5.517-4.198-10.035-10.155-10.035h-11.833v27.986h5.197v-7.876h6.636Zm-6.636-4.478v-11.154h5.957c3.438 0 5.637 2.479 5.637 5.557 0 3.079-2.199 5.597-5.637 5.597h-5.957Zm44.657 12.354h5.197v-27.986h-5.197v27.986Zm35.301 0h5.078v-19.83l16.111 19.83h4.358v-27.986h-5.077v19.87l-16.112-19.87h-4.358v27.986Zm82.757-19.07c-2.039-5.877-6.996-9.475-13.673-9.475-9.035 0-15.032 6.356-15.032 14.552 0 8.076 5.997 14.552 15.032 14.552 8.876 0 14.593-6.356 14.593-14.592v-.08h-16.192v4.278h10.595c-1.08 3.478-4.078 6.037-9.036 6.037-5.837 0-9.795-3.998-9.795-10.195 0-5.837 3.878-10.075 9.835-10.075 4.238 0 7.037 2.159 8.516 4.998h5.157Z" style="fill:#000547;text-wrap-mode:nowrap"/><path d="M295.678 11.826H186.047M295.678 83.911H186.047M295.678 159.001H186.047" style="stroke-opacity:1;stroke-miterlimit:0;stroke-width:17.344px;stroke-dashoffset:0;fill-opacity:1;fill:none;stroke:#57d6c0"/></svg>