<?xml version="1.0" encoding="utf-8"?>
<svg xmlns="http://www.w3.org/2000/svg" viewBox="0 0 735 256.1">
  <path d="M 166.507 50.493 L 147.954 50.493 C 136.917 30.295 116.017 16.439 87.598 16.439 C 46.97 16.439 18.788 46.5 18.788 85.484 C 18.788 124.469 46.97 154.528 87.598 154.528 C 116.017 154.528 136.917 140.673 147.954 120.476 L 166.507 120.476 C 154.53 150.066 125.41 170.969 87.598 170.969 C 36.872 170.969 0 133.862 0 85.484 C 0 37.106 36.872 0 87.598 0 C 125.41 0 154.53 20.902 166.507 50.493" style="fill: rgb(23, 0, 45); fill-opacity: 1;"/>
  <path d="M 382.953 99.34 C 410.195 99.34 424.99 79.848 424.99 59.181 C 424.99 38.515 410.195 19.493 382.953 19.493 L 341.149 19.493 L 341.149 99.34 L 382.953 99.34 Z M 376.847 115.545 L 341.149 115.545 L 341.149 167.68 L 322.363 167.68 L 322.363 3.288 L 384.83 3.288 C 420.058 3.288 443.544 29.121 443.544 59.181 C 443.544 85.25 425.93 108.265 398.688 114.136 L 448.709 167.68 L 424.99 167.68 L 376.847 115.545 Z" style="fill: rgb(23, 0, 45); fill-opacity: 1;"/>
  <path d="M 576.311 19.493 L 531.853 19.493 L 531.853 167.681 L 513.065 167.681 L 513.065 19.493 L 459.283 19.493 L 459.283 3.288 L 584.631 3.288 L 576.311 19.493 Z" style="fill: rgb(23, 0, 45); fill-opacity: 1;"/>
  <path d="M 621.569 116.484 L 694.841 116.484 L 658.204 24.894 L 621.569 116.484 Z M 701.182 132.219 L 615.227 132.219 L 600.902 167.68 L 581.409 167.68 L 650.455 3.287 L 665.955 3.287 L 735 167.68 L 715.509 167.68 L 701.182 132.219 Z" style="fill: rgb(23, 0, 45); fill-opacity: 1;"/>
  <path d="M 124.455 234.642 C 124.455 230.444 121.017 227.565 116.699 227.565 L 104.665 227.565 L 104.665 255.551 L 117.339 255.551 C 122.976 255.551 126.734 252.153 126.734 247.795 C 126.734 243.997 124.335 241.518 120.417 240.798 C 122.776 239.719 124.455 237.44 124.455 234.642 Z M 109.823 251.393 L 109.823 243.237 L 116.619 243.237 C 119.538 243.237 121.537 244.876 121.537 247.275 C 121.537 249.674 119.658 251.393 116.579 251.393 L 109.823 251.393 Z M 109.823 231.723 L 115.1 231.723 C 117.659 231.723 119.378 233.202 119.378 235.321 C 119.378 237.48 117.819 239.159 115.34 239.159 L 109.823 239.159 L 109.823 231.723 Z M 153.52 241.558 C 153.52 249.714 159.517 256.11 168.392 256.11 C 177.308 256.11 183.264 249.674 183.264 241.558 C 183.264 233.442 177.308 227.006 168.392 227.006 C 159.517 227.006 153.52 233.442 153.52 241.558 Z M 168.392 231.483 C 174.469 231.483 178.067 236.161 178.067 241.558 C 178.067 246.915 174.469 251.633 168.392 251.633 C 162.355 251.633 158.717 246.915 158.717 241.558 C 158.717 236.161 162.355 231.483 168.392 231.483 Z M 210.37 241.558 C 210.37 249.714 216.367 256.11 225.243 256.11 C 234.158 256.11 240.115 249.674 240.115 241.558 C 240.115 233.442 234.158 227.006 225.243 227.006 C 216.367 227.006 210.37 233.442 210.37 241.558 Z M 225.243 231.483 C 231.319 231.483 234.918 236.161 234.918 241.558 C 234.918 246.915 231.319 251.633 225.243 251.633 C 219.206 251.633 215.568 246.915 215.568 241.558 C 215.568 236.161 219.206 231.483 225.243 231.483 Z M 268.62 255.551 L 273.817 255.551 L 273.817 241.598 L 285.371 255.551 L 291.568 255.551 L 279.534 241.238 L 291.008 227.565 L 285.011 227.565 L 273.817 240.878 L 273.817 227.565 L 268.62 227.565 L 268.62 255.551 Z M 319.354 255.551 L 324.551 255.551 L 324.551 241.598 L 336.105 255.551 L 342.302 255.551 L 330.268 241.238 L 341.742 227.565 L 335.745 227.565 L 324.551 240.878 L 324.551 227.565 L 319.354 227.565 L 319.354 255.551 Z M 370.087 255.551 L 388.957 255.551 L 388.957 250.993 L 375.284 250.993 L 375.284 243.597 L 388.438 243.597 L 388.438 239.079 L 375.284 239.079 L 375.284 232.123 L 388.797 232.123 L 388.797 227.565 L 370.087 227.565 L 370.087 255.551 Z M 417.502 255.551 L 436.373 255.551 L 436.373 250.993 L 422.7 250.993 L 422.7 243.597 L 435.853 243.597 L 435.853 239.079 L 422.7 239.079 L 422.7 232.123 L 436.213 232.123 L 436.213 227.565 L 417.502 227.565 L 417.502 255.551 Z M 476.751 247.675 C 482.708 247.675 486.906 243.117 486.906 237.6 C 486.906 232.083 482.708 227.565 476.751 227.565 L 464.918 227.565 L 464.918 255.551 L 470.115 255.551 L 470.115 247.675 L 476.751 247.675 Z M 470.115 243.197 L 470.115 232.043 L 476.072 232.043 C 479.51 232.043 481.709 234.522 481.709 237.6 C 481.709 240.679 479.51 243.197 476.072 243.197 L 470.115 243.197 Z M 514.772 255.551 L 519.969 255.551 L 519.969 227.565 L 514.772 227.565 L 514.772 255.551 Z M 550.073 255.551 L 555.151 255.551 L 555.151 235.721 L 571.262 255.551 L 575.62 255.551 L 575.62 227.565 L 570.543 227.565 L 570.543 247.435 L 554.431 227.565 L 550.073 227.565 L 550.073 255.551 Z M 632.83 236.481 C 630.791 230.604 625.834 227.006 619.157 227.006 C 610.122 227.006 604.125 233.362 604.125 241.558 C 604.125 249.634 610.122 256.11 619.157 256.11 C 628.033 256.11 633.75 249.754 633.75 241.518 L 633.75 241.438 L 617.558 241.438 L 617.558 245.716 L 628.153 245.716 C 627.073 249.194 624.075 251.753 619.117 251.753 C 613.28 251.753 609.322 247.755 609.322 241.558 C 609.322 235.721 613.2 231.483 619.157 231.483 C 623.395 231.483 626.194 233.642 627.673 236.481 L 632.83 236.481 Z" style="fill: rgb(0, 5, 71); text-wrap-mode: nowrap;"/>
  <path d="M 295.678 11.826 L 186.047 11.826" style="fill: rgb(35, 31, 32); stroke: rgb(255, 255, 255); stroke-opacity: 1; stroke-miterlimit: 0; stroke-width: 17.344px; stroke-dashoffset: 0px; fill-opacity: 1;"/>
  <path d="M 295.678 83.911 L 186.047 83.911" style="fill: rgb(35, 31, 32); stroke: rgb(255, 255, 255); stroke-opacity: 1; stroke-miterlimit: 0; stroke-width: 17.344px; stroke-dashoffset: 0px; fill-opacity: 1;"/>
  <path d="M 295.678 159.001 L 186.047 159.001" style="fill: rgb(35, 31, 32); stroke: rgb(255, 255, 255); stroke-opacity: 1; stroke-miterlimit: 0; stroke-width: 17.344px; stroke-dashoffset: 0px; fill-opacity: 1;"/>
</svg>